<svg xmlns="http://www.w3.org/2000/svg" xmlns:xlink="http://www.w3.org/1999/xlink" width="80" zoomAndPan="magnify" viewBox="0 0 375 374.999991" height="80" preserveAspectRatio="xMidYMid meet" version="1.0"><defs><clipPath id="35f6b0fbb7"><path d="M 124 210 L 179 210 L 179 316.507812 L 124 316.507812 Z M 124 210 " clip-rule="nonzero"/></clipPath><clipPath id="fabc591e1a"><path d="M 130 58.507812 L 245 58.507812 L 245 95 L 130 95 Z M 130 58.507812 " clip-rule="nonzero"/></clipPath><clipPath id="b4804de971"><path d="M 268 207 L 332 207 L 332 316.507812 L 268 316.507812 Z M 268 207 " clip-rule="nonzero"/></clipPath><clipPath id="aa0ce14fc2"><path d="M 43 207 L 107 207 L 107 316.507812 L 43 316.507812 Z M 43 207 " clip-rule="nonzero"/></clipPath><clipPath id="09706d008b"><path d="M 196 210 L 251 210 L 251 316.507812 L 196 316.507812 Z M 196 210 " clip-rule="nonzero"/></clipPath></defs><g clip-path="url(#35f6b0fbb7)"><path fill="#004aad" d="M 178.4375 210.601562 L 124.328125 227.523438 L 124.328125 317.300781 L 178.4375 300.375 Z M 178.4375 210.601562 " fill-opacity="1" fill-rule="nonzero"/></g><path fill="#004aad" d="M 115.3125 211.429688 L 157.207031 198.332031 L 100.179688 180.507812 L 58.285156 193.605469 Z M 115.3125 211.429688 " fill-opacity="1" fill-rule="nonzero"/><path fill="#004aad" d="M 196.472656 110.25 L 196.472656 186.0625 L 259.59375 166.324219 L 259.59375 90.511719 Z M 196.472656 110.25 " fill-opacity="1" fill-rule="nonzero"/><path fill="#004aad" d="M 178.4375 186.0625 L 178.4375 110.25 L 115.3125 90.511719 L 115.3125 166.324219 Z M 178.4375 186.0625 " fill-opacity="1" fill-rule="nonzero"/><g clip-path="url(#fabc591e1a)"><path fill="#004aad" d="M 187.453125 94.15625 L 244.480469 76.332031 L 187.453125 58.507812 L 130.425781 76.332031 Z M 187.453125 94.15625 " fill-opacity="1" fill-rule="nonzero"/></g><g clip-path="url(#b4804de971)"><path fill="#004aad" d="M 268.613281 227.523438 L 268.613281 317.300781 L 331.734375 297.5625 L 331.734375 207.785156 Z M 268.613281 227.523438 " fill-opacity="1" fill-rule="nonzero"/></g><g clip-path="url(#aa0ce14fc2)"><path fill="#004aad" d="M 106.292969 227.523438 L 43.171875 207.785156 L 43.171875 297.5625 L 106.292969 317.300781 Z M 106.292969 227.523438 " fill-opacity="1" fill-rule="nonzero"/></g><path fill="#004aad" d="M 274.726562 180.507812 L 217.699219 198.332031 L 259.59375 211.429688 L 316.621094 193.605469 Z M 274.726562 180.507812 " fill-opacity="1" fill-rule="nonzero"/><g clip-path="url(#09706d008b)"><path fill="#004aad" d="M 250.578125 227.523438 L 196.472656 210.601562 L 196.472656 300.375 L 250.578125 317.300781 Z M 250.578125 227.523438 " fill-opacity="1" fill-rule="nonzero"/></g></svg>